<svg width="20" height="20" viewBox="0 0 20 20" fill="none" xmlns="http://www.w3.org/2000/svg">
<path fill-rule="evenodd" clip-rule="evenodd" d="M3.53896 1.59141C2.99835 1.03854 2.12185 1.03854 1.58124 1.59141C1.04063 2.14428 1.04063 3.04064 1.58124 3.59351L8.04166 10.2004L1.97253 16.4071C1.43192 16.9599 1.43192 17.8563 1.97253 18.4091C2.51314 18.962 3.38964 18.962 3.93025 18.4091L9.99938 12.2025L16.0684 18.409C16.609 18.9619 17.4855 18.9619 18.0261 18.409C18.5667 17.8562 18.5667 16.9598 18.0261 16.407L11.9571 10.2004L18.4173 3.59364C18.958 3.04079 18.958 2.14441 18.4173 1.59154C17.8768 1.03868 17.0002 1.03868 16.4597 1.59154L9.99938 8.19828L3.53896 1.59141Z" fill="#393939"/>
</svg>
