<svg width="24" height="24" viewBox="0 0 24 24" fill="none" xmlns="http://www.w3.org/2000/svg">
<path d="M12 22C17.523 22 22 17.523 22 12C22 6.477 17.523 2 12 2C6.477 2 2 6.477 2 12C2 17.523 6.477 22 12 22Z" stroke="white" stroke-width="1.5" stroke-linejoin="round"/>
<path d="M12 8.99982C12.3978 8.99982 12.7794 8.84178 13.0607 8.56048C13.342 8.27917 13.5 7.89764 13.5 7.49982C13.5 7.10199 13.342 6.72046 13.0607 6.43916C12.7794 6.15785 12.3978 5.99982 12 5.99982C11.6022 5.99982 11.2206 6.15785 10.9393 6.43916C10.658 6.72046 10.5 7.10199 10.5 7.49982C10.5 7.89764 10.658 8.27917 10.9393 8.56048C11.2206 8.84178 11.6022 8.99982 12 8.99982ZM12 17.9998C12.3978 17.9998 12.7794 17.8418 13.0607 17.5605C13.342 17.2792 13.5 16.8976 13.5 16.4998C13.5 16.102 13.342 15.7205 13.0607 15.4392C12.7794 15.1579 12.3978 14.9998 12 14.9998C11.6022 14.9998 11.2206 15.1579 10.9393 15.4392C10.658 15.7205 10.5 16.102 10.5 16.4998C10.5 16.8976 10.658 17.2792 10.9393 17.5605C11.2206 17.8418 11.6022 17.9998 12 17.9998ZM7.5 13.4998C7.89782 13.4998 8.27936 13.3418 8.56066 13.0605C8.84196 12.7792 9 12.3976 9 11.9998C9 11.602 8.84196 11.2205 8.56066 10.9392C8.27936 10.6579 7.89782 10.4998 7.5 10.4998C7.10218 10.4998 6.72064 10.6579 6.43934 10.9392C6.15804 11.2205 6 11.602 6 11.9998C6 12.3976 6.15804 12.7792 6.43934 13.0605C6.72064 13.3418 7.10218 13.4998 7.5 13.4998V13.4998ZM16.5 13.4998C16.8978 13.4998 17.2794 13.3418 17.5607 13.0605C17.842 12.7792 18 12.3976 18 11.9998C18 11.602 17.842 11.2205 17.5607 10.9392C17.2794 10.6579 16.8978 10.4998 16.5 10.4998C16.1022 10.4998 15.7206 10.6579 15.4393 10.9392C15.158 11.2205 15 11.602 15 11.9998C15 12.3976 15.158 12.7792 15.4393 13.0605C15.7206 13.3418 16.1022 13.4998 16.5 13.4998Z" stroke="white" stroke-width="1.5" stroke-linejoin="round"/>
<path d="M12 22H22" stroke="white" stroke-width="1.5" stroke-linecap="round"/>
</svg>
