<svg width="24" height="24" viewBox="0 0 24 24" fill="none" xmlns="http://www.w3.org/2000/svg">
<path d="M7 21H17" stroke="white" stroke-width="1.5" stroke-linecap="round" stroke-linejoin="round"/>
<path d="M2 16.4V3.6C2 3.44087 2.06321 3.28826 2.17574 3.17574C2.28826 3.06321 2.44087 3 2.6 3H21.4C21.5591 3 21.7117 3.06321 21.8243 3.17574C21.9368 3.28826 22 3.44087 22 3.6V16.4C22 16.5591 21.9368 16.7117 21.8243 16.8243C21.7117 16.9368 21.5591 17 21.4 17H2.6C2.44087 17 2.28826 16.9368 2.17574 16.8243C2.06321 16.7117 2 16.5591 2 16.4V16.4Z" stroke="white" stroke-width="1.5"/>
</svg>
