<svg width="113" height="32" viewBox="0 0 113 32" fill="none" xmlns="http://www.w3.org/2000/svg">
<g clip-path="url(#clip0_1110_999)">
<path d="M47.5161 18.2534V21.1902L46.646 18.9424L40.9169 8.49414H36.5664V25.1097H39.8999V15.3392V12.3911L40.7474 14.2435L46.533 25.1097H50.8722V8.49414H47.5161V18.2534Z" fill="white"/>
<path d="M59.2467 19.9254H65.0775V19.1799C65.0775 17.1806 64.5916 15.5767 63.6424 14.4019C62.6706 13.2046 61.2694 12.606 59.4275 12.606H59.2354C57.6082 12.6398 56.2522 13.2159 55.1674 14.3003C53.9696 15.4976 53.3594 17.0451 53.3594 18.9427C53.3594 21.055 54.0148 22.6476 55.2804 23.7772C56.3087 24.6582 57.6308 25.1552 59.2354 25.2682H59.2467C59.484 25.2682 59.7213 25.2907 59.9699 25.2907C61.4163 25.2569 62.8401 24.9971 64.2074 24.5227V22.1054C63.6085 22.3878 62.987 22.6137 62.3429 22.7832C61.6988 22.9187 61.0434 22.9865 60.388 22.9865C60.0038 22.9865 59.6309 22.9526 59.258 22.8735H59.2467C58.6478 22.7493 58.0941 22.4669 57.6421 22.049C57.0432 21.5068 56.7042 20.7274 56.7268 19.9254H59.2467ZM57.4387 15.667C57.9472 15.1248 58.5235 14.8425 59.2241 14.8425H59.2354C59.8795 14.8312 60.501 15.0684 60.9643 15.5089C61.4841 16.0172 61.7666 16.7401 61.7666 17.6889H56.7155C56.7042 16.966 56.9641 16.2431 57.4387 15.667Z" fill="white"/>
<path d="M71.7656 9.33008L68.5339 10.358V12.8204H66.127V15.1698H68.5339V21.4953C68.5339 22.7491 68.8502 23.6753 69.4491 24.3304C70.048 24.9856 70.9408 25.3018 72.1386 25.3018C72.455 25.3018 72.8844 25.268 73.3929 25.2115C73.811 25.1663 74.2178 25.0985 74.6246 24.9856V22.7039C74.3421 22.7943 74.1386 22.8507 73.9918 22.8959C73.7884 22.9298 73.585 22.9411 73.3816 22.9524C72.8053 22.9524 72.3872 22.8055 72.1499 22.5458C71.9126 22.286 71.777 21.6873 71.777 20.7724V15.1811H74.6359V12.8317H71.777L71.7656 9.33008Z" fill="white"/>
<path d="M93.4294 8.49414H87.0901V18.3212C87.0901 19.0667 86.9997 19.6653 86.7963 20.1059C86.4573 20.7723 85.9149 21.0999 85.1352 21.0999C84.3329 21.0999 83.7905 20.761 83.4515 20.0946C83.2481 19.6427 83.1577 19.0441 83.1577 18.3212V8.49414H76.8184V18.5697C76.8184 20.5803 77.3947 22.1503 78.5473 23.2912C79.4061 24.127 80.6152 24.7483 82.1068 25.0872C83.1012 25.3018 84.1182 25.4147 85.1352 25.4034C86.1522 25.4147 87.1805 25.3018 88.1749 25.0872C89.6665 24.7483 90.8417 24.1383 91.7344 23.2573C92.8531 22.1164 93.4294 20.5577 93.4294 18.581V8.49414Z" fill="white"/>
<path d="M111.283 10.324C109.995 9.11539 108.187 8.49414 105.836 8.49414H96.1523V25.1097H102.48V20.2979H105.949C108.322 20.2979 110.153 19.6653 111.419 18.3551C112.481 17.2933 113.001 15.983 113.001 14.4355C113.001 12.7864 112.436 11.3971 111.283 10.324ZM105.441 16.2202C105.136 16.3445 104.808 16.4235 104.469 16.4461C104.243 16.4687 103.983 16.48 103.701 16.48H102.3V12.3346H103.678C103.938 12.3233 104.198 12.3346 104.458 12.3685C105.17 12.4475 105.712 12.6622 106.062 12.9784C106.435 13.3286 106.616 13.7804 106.616 14.3904C106.639 15.2827 106.232 15.8814 105.441 16.2202Z" fill="white"/>
<path d="M0 0H31.9451V4.56336H17.2551L15.9895 2.34945L14.7239 4.56336H0V0ZM0 6.86763H31.9451V11.4423H21.2214L19.888 9.13802H12.0684L10.7463 11.431H0V6.86763ZM0 13.724H31.9451V18.2986H25.1764L23.843 15.9944H8.1134L6.8026 18.2873H0V13.724ZM0 20.569H31.9451V25.155H29.1088L27.798 22.862H4.181L2.8589 25.155H0V20.569ZM0 32V27.4253H31.9451V31.9887H24.8713V29.7183H7.0851V31.9887L0 32Z" fill="white"/>
</g>
<defs>
<clipPath id="clip0_1110_999">
<rect width="113" height="32" fill="white"/>
</clipPath>
</defs>
</svg>
